<?xml version="1.0"?>
<svg version="1.1" xmlns="http://www.w3.org/2000/svg" width="125" height="60" style="border: dashed 2px #aaa"><path fill="#e8131d" d="M15.953125,26.1875q0-0.734375,0.0390625-1.453125t0.1328125-1.421875q0.0625-0.359375,0.5546875-0.515625t0.8203125-0.15625l0.375,0.03125q0.453125,0.0625,0.9140625-0.0625t0.9140625-0.125q1.0625,0,2.375,0.234375t2.4609375,0.796875t1.9296875,1.4765625t0.78125,2.2578125t-0.8125,2.5078125t-2.046875,2.046875t-2.65625,1.3828125t-2.609375,0.5q0.125,3.015625,0.3515625,5.984375t0.7734375,5.9375l0.03125,0.203125q0,0.21875-0.1953125,0.359375t-0.4609375,0.2265625t-0.5390625,0.1171875t-0.4453125,0.03125q-0.390625,0-0.9453125-0.1484375t-0.6796875-0.5859375q-0.359375-1.375-0.5625-3.0234375t-0.296875-3.4453125t-0.1328125-3.6171875t-0.0390625-3.5546875l0-3.515625q0-0.578125-0.015625-1.203125t-0.015625-1.265625z M18.90625,23.65625q0,2.140625,0.046875,4.2734375t0.109375,4.2734375q0.921875-0.1875,1.8828125-0.6640625t1.734375-1.1328125t1.25-1.4921875t0.4765625-1.7578125q0-0.828125-0.4140625-1.484375t-1.0703125-1.125q-0.640625-0.453125-1.453125-0.703125q-0.71875-0.21875-1.40625-0.21875l-0.171875,0z M30.44796875,34.953125q0-0.921875,0.1015625-2.234375t0.375-2.734375t0.734375-2.828125t1.1796875-2.484375t1.71875-1.703125q0.828125-0.515625,1.90625-0.515625q0.21875,0,0.453125,0.03125q2.71875,0.25,4.1796875,1.2421875t2.1328125,2.515625t0.78125,3.46875t0.109375,4.1015625q0,1.734375-0.3203125,3.7734375t-1.1328125,3.8046875t-2.2421875,2.9453125t-3.6328125,1.1796875q-1.34375,0-2.3515625-0.4921875t-1.7109375-1.3125t-1.15625-1.90625t-0.6875-2.25t-0.3359375-2.3515625t-0.1015625-2.25z M33.61984375,34.25q0,0.671875,0.015625,1.6484375t0.1328125,2.0546875t0.3046875,2.1484375t0.5546875,1.9453125t0.9296875,1.4375t1.359375,0.59375l0.078125,0q0.71875,0,1.28125-0.546875q0.59375-0.578125,1.0546875-1.390625t0.796875-1.7109375t0.6015625-1.5390625l-0.0625,0.140625q0.453125-1.4375,0.609375-2.9453125t0.15625-2.9765625q0-0.703125-0.09375-1.6953125t-0.3046875-2.0703125t-0.546875-2.1328125t-0.8515625-1.8359375t-1.203125-1.1875q-0.5-0.296875-1.109375-0.3125q-0.234375,0-0.46875,0.046875q-0.796875,0.15625-1.359375,0.78125t-0.9140625,1.5390625t-0.5390625,2t-0.2890625,2.1875t-0.1171875,2.109375t-0.015625,1.7109375z M40.66671875,39.0625l0-0.03125l0,0.03125z M47.3803125,37.96875l0-2.46875q0-2.5625,0.0859375-5.0859375t0.1484375-5.0859375q0-0.484375-0.03125-1.078125q-0.015625-0.171875-0.015625-0.328125q0-0.390625,0.0625-0.765625q0.078125-0.5,0.3828125-0.859375t1.0078125-0.359375q0.578125,0,0.8828125,0.125t0.4296875,0.3671875t0.140625,0.609375t0.015625,0.8515625q0,2.59375-0.0625,5.203125q-0.046875,1.734375-0.046875,3.46875q0,0.875,0.015625,1.75q0.03125,2.59375,0.2421875,5.1875t0.7109375,5.125q1.5625-0.0625,3.125-0.15625t3.125-0.09375q0.15625,0,0.4453125,0.03125t0.578125,0.109375t0.4921875,0.203125t0.203125,0.359375q0,0.15625-0.140625,0.265625t-0.265625,0.171875l-0.03125,0q-0.25,0.125-0.9921875,0.2421875t-1.6875,0.1796875t-1.984375,0.109375t-1.953125,0.078125t-1.5859375,0.046875t-0.828125,0.015625l-0.140625,0q-0.375,0-0.84375-0.125q-0.5625-0.15625-0.703125-0.609375q-0.28125-1.15625-0.4453125-2.3984375t-0.25-2.5234375t-0.0859375-2.5625z M61.59390625,43.46875q-0.015625-0.46875-0.015625-0.9375q0-1.46875,0.15625-2.953125q0.1875-1.96875,0.25-3.875q0.0625-2.234375,0.1875-4.640625q0.078125-1.3125,0.078125-2.59375q0-1.046875-0.046875-2.078125q0.15625-0.359375,0.4140625-0.484375t0.6484375-0.125q0.1875,0,0.3984375,0.03125t0.3671875,0.15625q0.21875,0.03125,0.5390625,0.0625t0.4921875,0.1875q0.0625,0.09375,0.3203125,0.640625t0.609375,1.328125t0.734375,1.6953125t0.734375,1.734375t0.609375,1.4453125t0.3203125,0.78125q1.46875-2.65625,2.875-5.4609375t3.078125-5.2890625q0.15625-0.21875,0.5390625-0.3203125t0.6328125-0.1015625q0.671875,0,0.9765625,0.3203125t0.3984375,0.8203125q0.0625,0.3125,0.078125,0.671875q0.015625,0.1875-0.015625,0.390625q-0.0625,0.578125-0.0625,1.09375q0,3.640625-0.25,7.2265625t-0.453125,7.2421875q-0.03125,0.75-0.03125,1.5625t0.03125,1.6875q0.015625,0.3125,0.015625,0.609375q0,1.375-0.234375,2.5625q-0.21875,0.359375-0.71875,0.453125t-0.84375,0.09375q-0.734375,0-1.40625-0.34375l-0.171875-0.203125l-0.0625-0.25t-0.03125-0.25q0-2.265625,0.1640625-4.5625t0.3671875-4.5859375t0.4296875-4.5703125t0.3828125-4.5625q-0.921875,1.53125-1.7890625,3.1171875t-1.6328125,3.2265625q-0.28125,0.640625-0.5390625,1.375t-0.6171875,1.3125q-0.1875,0.28125-0.6328125,0.34375t-0.7734375,0.0625q-0.3125,0-0.6484375-0.109375t-0.4609375-0.46875q-0.578125-1.765625-1.234375-3.453125t-1.328125-3.421875q0,1.15625,0.046875,2.9921875t0.046875,3.8046875t-0.0625,3.765625t-0.296875,2.84375q-0.0625,0.390625-0.5078125,0.484375t-0.7734375,0.09375q-0.25,0-0.4765625-0.03125t-0.4453125-0.125z M80.15125,44.3125q0.03125-0.65625,0.03125-1.28125q0-2.265625,0.1640625-4.515625t0.2265625-4.515625q0.09375-2.59375,0.171875-5.140625t0.3125-5.125q0.0625-0.640625,0.3671875-0.8359375t0.9140625-0.1953125q0.28125,0,0.75,0.109375t0.46875,0.53125q0.21875,0.03125,0.4375,0.03125q0.328125,0,0.671875-0.0625q0.5625-0.09375,1.1484375-0.2109375t1.1640625-0.2265625t1.109375-0.109375q0.125,0,0.3515625,0.015625t0.453125,0.09375t0.3828125,0.1953125t0.15625,0.3046875t-0.3671875,0.3359375t-0.9609375,0.2578125t-1.28125,0.1875t-1.34375,0.1328125t-1.1640625,0.0859375t-0.7265625,0.03125l-0.03125,5.875l0.03125,2.921875q0.484375,0,1.453125-0.03125q0.390625-0.015625,0.78125-0.015625q0.59375,0,1.21875,0.03125q1.03125,0.046875,1.859375,0.1875t1.046875,0.5q0,0.21875-0.2265625,0.3515625t-0.5078125,0.1953125t-0.5703125,0.078125t-0.4140625,0.015625q-1.15625,0-2.328125-0.046875t-2.3125-0.1875q0,1.921875-0.1015625,3.8125t-0.1015625,3.8125q0,0.828125,0.015625,1.6328125t0.1875,1.6015625q0.421875-0.03125,0.9140625-0.078125t1-0.1171875t0.9765625-0.1171875t0.8125-0.046875q0.1875,0,0.5078125,0.046875t0.65625,0.15625t0.578125,0.2734375t0.2421875,0.3828125q0,0.25-0.4609375,0.4453125t-1.1796875,0.3125t-1.5703125,0.1640625t-1.6484375,0.0625t-1.4375,0.015625l-0.90625,0q-0.859375,0-1.2578125-0.3203125t-0.5546875-0.8359375q-0.125-0.421875-0.109375-0.953125l0-0.21875z M93.14609375,24.265625q0-1.09375,0.375-1.46875t1.046875-0.375q0.1875,0,0.3984375,0.03125t0.3984375,0.09375q1.046875-0.203125,1.984375-0.203125q1.515625,0,2.75,0.53125q1.984375,0.84375,3.28125,2.5t1.90625,3.890625t0.609375,4.578125q0,1.3125-0.1796875,2.734375t-0.6953125,2.640625q-0.453125,1.09375-1.25,2.2890625t-1.8046875,2.265625t-2.171875,1.875t-2.3515625,1.0859375l0,0.125q0,0.3125-0.1640625,0.5078125t-0.3984375,0.296875t-0.5390625,0.1328125t-0.5703125,0.03125q-0.15625,0-0.4453125-0.03125t-0.5625-0.1171875t-0.4609375-0.2265625t-0.1875-0.390625q0-2.84375-0.1484375-5.6953125t-0.3359375-5.703125t-0.3359375-5.6953125t-0.1484375-5.703125z M96.09921875,23.46875q0.15625,1.5,0.203125,2.9921875t0.140625,2.9921875q0.25,3.875,0.578125,7.7109375t0.390625,7.7109375q1.5-0.984375,2.5703125-2.25t1.7578125-2.75t1.0078125-3.1171875t0.3203125-3.3671875q0-1.25-0.21875-2.75t-0.75-2.890625t-1.4296875-2.515625t-2.2421875-1.609375q-0.28125-0.09375-0.6796875-0.15625t-1.2734375-0.0625q-0.09375,0-0.1875,0.03125t-0.1875,0.03125z"/><path fill="#" d=""/></svg>
